<svg width="100" height="100" viewBox="0 0 100 100" fill="none" xmlns="http://www.w3.org/2000/svg">
  <circle cx="50" cy="50" r="50" fill="#003366"/>
  <path d="M50 15C60 15 68 23 68 33C68 43 60 51 50 51C40 51 32 43 32 33C32 23 40 15 50 15Z" fill="#FFD700"/>
  <path d="M50 58C65 58 80 65.25 80 74V85H20V74C20 65.25 35 58 50 58Z" fill="#FFD700"/>
  <path d="M35 33C35 40.1797 41.8203 46 49 46C56.1797 46 63 40.1797 63 33C63 25.8203 56.1797 20 49 20" stroke="#003366" stroke-width="2"/>
  <rect x="25" y="65" width="50" height="15" rx="2" fill="#003366"/>
  <path d="M33 72L40 79L50 69" stroke="#FFD700" stroke-width="2" stroke-linecap="round" stroke-linejoin="round"/>
  <circle cx="60" cy="74" r="3" fill="#FFD700"/>
</svg>
